<svg xmlns="http://www.w3.org/2000/svg" viewBox="0 0 180 180" fill="none">
  <rect width="180" height="180" rx="42" fill="#F7F9FF" />
  <g fill="#0E111B">
    <rect x="54" y="18" width="72" height="31.5" rx="15.75" />
    <g transform="rotate(60 90 90)">
      <rect x="54" y="18" width="72" height="31.5" rx="15.75" />
    </g>
    <g transform="rotate(120 90 90)">
      <rect x="54" y="18" width="72" height="31.5" rx="15.75" />
    </g>
    <g transform="rotate(180 90 90)">
      <rect x="54" y="18" width="72" height="31.5" rx="15.75" />
    </g>
    <g transform="rotate(240 90 90)">
      <rect x="54" y="18" width="72" height="31.5" rx="15.75" />
    </g>
    <g transform="rotate(300 90 90)">
      <rect x="54" y="18" width="72" height="31.5" rx="15.75" />
    </g>
  </g>
  <polygon points="90,50.4 125.1,70.2 125.1,109.8 90,129.6 54.9,109.8 54.9,70.2" fill="#0E111B" />
  <polygon points="90,59.4 117.9,75.15 117.9,104.85 90,120.6 62.1,104.85 62.1,75.15" stroke="#F7F9FF" stroke-width="6.3" />
</svg>