<svg xmlns="http://www.w3.org/2000/svg" viewBox="0 0 40 40" fill="none">
  <g fill="#E9EEF9" stroke="#0E111B" stroke-opacity=".28" stroke-width=".6">
    <rect x="12" y="4" width="16" height="7" rx="3.5" />
    <g transform="rotate(60 20 20)">
      <rect x="12" y="4" width="16" height="7" rx="3.5" />
    </g>
    <g transform="rotate(120 20 20)">
      <rect x="12" y="4" width="16" height="7" rx="3.5" />
    </g>
    <g transform="rotate(180 20 20)">
      <rect x="12" y="4" width="16" height="7" rx="3.5" />
    </g>
    <g transform="rotate(240 20 20)">
      <rect x="12" y="4" width="16" height="7" rx="3.5" />
    </g>
    <g transform="rotate(300 20 20)">
      <rect x="12" y="4" width="16" height="7" rx="3.5" />
    </g>
  </g>
  <polygon points="20,11.2 27.8,15.6 27.8,24.4 20,28.8 12.2,24.4 12.2,15.6" fill="#DCE6F8" stroke="#0E111B" stroke-opacity=".28" stroke-width=".6" />
  <polygon points="20,13.2 26.2,16.7 26.2,23.3 20,26.8 13.8,23.3 13.8,16.7" stroke="#F7FAFF" stroke-width="1.4" />
</svg>
