<svg xmlns="http://www.w3.org/2000/svg" viewBox="0 0 320 96" fill="none">
  <g fill="#0E111B" transform="translate(16 8) scale(2)">
    <rect x="14" y="7" width="12" height="5.4" rx="2.7" />
    <g transform="rotate(60 20 20)">
      <rect x="14" y="7" width="12" height="5.4" rx="2.7" />
    </g>
    <g transform="rotate(120 20 20)">
      <rect x="14" y="7" width="12" height="5.4" rx="2.7" />
    </g>
    <g transform="rotate(180 20 20)">
      <rect x="14" y="7" width="12" height="5.4" rx="2.7" />
    </g>
    <g transform="rotate(240 20 20)">
      <rect x="14" y="7" width="12" height="5.4" rx="2.7" />
    </g>
    <g transform="rotate(300 20 20)">
      <rect x="14" y="7" width="12" height="5.4" rx="2.7" />
    </g>
    <polygon points="20,12.8 26.2,16.4 26.2,23.6 20,27.2 13.8,23.6 13.8,16.4" />
    <polygon points="20,14.4 24.8,17.2 24.8,22.8 20,25.6 15.2,22.8 15.2,17.2" stroke="#FAFBFF" stroke-width="1.2" />
  </g>
</svg>