<svg width="1280" height="900" viewBox="0 0 1280 900" fill="none" xmlns="http://www.w3.org/2000/svg">
  <defs>
    <linearGradient id="bg" x1="640" y1="0" x2="640" y2="900" gradientUnits="userSpaceOnUse">
      <stop stop-color="#151A4D"/>
      <stop offset="1" stop-color="#090C1F"/>
    </linearGradient>
  </defs>
  <rect width="1280" height="900" fill="url(#bg)"/>
  <ellipse cx="1010" cy="200" rx="250" ry="140" fill="#22D3EE" fill-opacity="0.24"/>
  <ellipse cx="280" cy="220" rx="230" ry="130" fill="#A78BFA" fill-opacity="0.24"/>
  <path d="M430 770C470 640 548 570 642 562C740 570 812 644 852 770H430Z" fill="#1A204F"/>
  <ellipse cx="642" cy="404" rx="178" ry="224" fill="#FFD9BE"/>
  <ellipse cx="562" cy="418" rx="36" ry="46" fill="#1C213F"/>
  <ellipse cx="722" cy="418" rx="36" ry="46" fill="#1C213F"/>
  <circle cx="562" cy="420" r="12" fill="#FFFFFF"/>
  <circle cx="722" cy="420" r="12" fill="#FFFFFF"/>
  <path d="M570 548C612 578 670 578 710 548" stroke="#5D3D39" stroke-width="14" stroke-linecap="round"/>
  <path d="M472 326C520 232 582 186 642 186C706 186 764 230 812 326" stroke="#202759" stroke-width="64" stroke-linecap="round"/>
  <path d="M498 312L380 420" stroke="#3B4691" stroke-width="18" stroke-linecap="round"/>
  <path d="M788 312L906 420" stroke="#3B4691" stroke-width="18" stroke-linecap="round"/>
  <path d="M444 262L340 206" stroke="#67E8F9" stroke-width="14" stroke-linecap="round"/>
  <path d="M838 262L942 206" stroke="#A78BFA" stroke-width="14" stroke-linecap="round"/>
  <rect width="1280" height="900" fill="#040716" fill-opacity="0.16"/>
</svg>
