<svg width="1280" height="900" viewBox="0 0 1280 900" fill="none" xmlns="http://www.w3.org/2000/svg">
  <defs>
    <linearGradient id="sky" x1="640" y1="0" x2="640" y2="520" gradientUnits="userSpaceOnUse">
      <stop stop-color="#F59E0B"/>
      <stop offset="1" stop-color="#7C2D12"/>
    </linearGradient>
  </defs>
  <rect width="1280" height="900" fill="#1D0E08"/>
  <rect width="1280" height="520" fill="url(#sky)"/>
  <ellipse cx="640" cy="290" rx="320" ry="140" fill="#FDBA74" fill-opacity="0.35"/>
  <path d="M0 620C200 560 380 580 560 640C760 708 940 712 1280 620V900H0V620Z" fill="#A33F13"/>
  <path d="M0 700C212 640 420 658 640 730C860 804 1050 796 1280 712V900H0V700Z" fill="#7C2D12"/>
  <path d="M560 678L640 542L720 678H560Z" fill="#261108"/>
  <ellipse cx="640" cy="730" rx="370" ry="56" fill="#000" fill-opacity="0.2"/>
  <rect width="1280" height="900" fill="#120704" fill-opacity="0.18"/>
</svg>
