<svg width="1280" height="900" viewBox="0 0 1280 900" fill="none" xmlns="http://www.w3.org/2000/svg">
  <defs>
    <linearGradient id="sky" x1="640" y1="0" x2="640" y2="900" gradientUnits="userSpaceOnUse">
      <stop stop-color="#0E284B"/>
      <stop offset="1" stop-color="#050E1A"/>
    </linearGradient>
  </defs>
  <rect width="1280" height="900" fill="url(#sky)"/>
  <ellipse cx="338" cy="212" rx="240" ry="120" fill="#38BDF8" fill-opacity="0.2"/>
  <ellipse cx="942" cy="206" rx="240" ry="120" fill="#67E8F9" fill-opacity="0.2"/>
  <ellipse cx="640" cy="358" rx="244" ry="270" fill="#CFF5FF" fill-opacity="0.38"/>
  <ellipse cx="638" cy="430" rx="160" ry="210" fill="#F1FBFF" fill-opacity="0.66"/>
  <ellipse cx="548" cy="410" rx="70" ry="90" fill="#E0F2FE"/>
  <ellipse cx="730" cy="408" rx="70" ry="92" fill="#E0F2FE"/>
  <ellipse cx="550" cy="415" rx="16" ry="20" fill="#2C3E54"/>
  <ellipse cx="732" cy="415" rx="16" ry="20" fill="#2C3E54"/>
  <path d="M562 536C608 564 672 564 718 536" stroke="#5E7690" stroke-width="12" stroke-linecap="round"/>
  <ellipse cx="520" cy="574" rx="140" ry="80" fill="#EAF8FF" fill-opacity="0.86"/>
  <ellipse cx="760" cy="578" rx="144" ry="84" fill="#EAF8FF" fill-opacity="0.86"/>
  <ellipse cx="638" cy="614" rx="180" ry="92" fill="#D7F1FE" fill-opacity="0.86"/>
  <rect y="700" width="1280" height="200" fill="#061525"/>
  <rect width="1280" height="900" fill="#02070F" fill-opacity="0.16"/>
</svg>
