<svg width="1280" height="900" viewBox="0 0 1280 900" fill="none" xmlns="http://www.w3.org/2000/svg">
  <defs>
    <linearGradient id="bg" x1="640" y1="0" x2="640" y2="900" gradientUnits="userSpaceOnUse">
      <stop stop-color="#311407"/>
      <stop offset="1" stop-color="#140804"/>
    </linearGradient>
  </defs>
  <rect width="1280" height="900" fill="url(#bg)"/>
  <ellipse cx="640" cy="380" rx="220" ry="250" fill="#FFE4C5" fill-opacity="0.2"/>
  <ellipse cx="470" cy="330" rx="130" ry="190" fill="#F97316" fill-opacity="0.45"/>
  <ellipse cx="815" cy="346" rx="145" ry="195" fill="#FB7185" fill-opacity="0.45"/>
  <ellipse cx="642" cy="280" rx="145" ry="160" fill="#FDBA74" fill-opacity="0.58"/>
  <ellipse cx="628" cy="530" rx="155" ry="210" fill="#FB923C" fill-opacity="0.5"/>
  <ellipse cx="530" cy="440" rx="62" ry="86" fill="#FFF7ED"/>
  <ellipse cx="748" cy="438" rx="64" ry="84" fill="#FFF7ED"/>
  <circle cx="534" cy="444" r="16" fill="#6B2E10"/>
  <circle cx="749" cy="443" r="16" fill="#6B2E10"/>
  <path d="M576 558C612 584 680 586 716 556" stroke="#7C2D12" stroke-width="12" stroke-linecap="round"/>
  <path d="M280 700C340 640 410 620 510 628" stroke="#65A30D" stroke-width="24" stroke-linecap="round"/>
  <path d="M1002 700C930 636 860 622 764 630" stroke="#65A30D" stroke-width="24" stroke-linecap="round"/>
  <ellipse cx="318" cy="688" rx="62" ry="36" fill="#84CC16"/>
  <ellipse cx="972" cy="688" rx="62" ry="36" fill="#84CC16"/>
  <ellipse cx="170" cy="236" rx="170" ry="118" fill="#FDBA74" fill-opacity="0.18"/>
  <ellipse cx="1110" cy="220" rx="170" ry="118" fill="#FB7185" fill-opacity="0.16"/>
  <rect width="1280" height="900" fill="#0C0906" fill-opacity="0.18"/>
</svg>
