<?xml version="1.0" encoding="UTF-8"?>
<svg xmlns="http://www.w3.org/2000/svg" width="800" height="480" viewBox="0 0 800 480" role="img" aria-label="AI Chat preview">
  <defs>
    <linearGradient id="bg-ai-chat-interface" x1="0%" y1="0%" x2="100%" y2="100%">
      <stop offset="0%" style="stop-color:#0f172a"/>
      <stop offset="100%" style="stop-color:#1e293b"/>
    </linearGradient>
    <linearGradient id="acc-ai-chat-interface" x1="0%" y1="0%" x2="100%" y2="0%">
      <stop offset="0%" style="stop-color:#38bdf8"/>
      <stop offset="100%" style="stop-color:#818cf8"/>
    </linearGradient>
  </defs>
  <rect width="800" height="480" fill="url(#bg-ai-chat-interface)"/>
  <rect x="0" y="0" width="800" height="44" fill="rgb(15 23 42 / 0.85)"/>
  <circle cx="22" cy="22" r="5" fill="#f87171"/><circle cx="42" cy="22" r="5" fill="#fbbf24"/><circle cx="62" cy="22" r="5" fill="#4ade80"/>
  <text x="80" y="28" fill="rgb(148 163 184)" font-family="ui-sans-serif,system-ui,sans-serif" font-size="13" font-weight="600">component</text>
  <text x="400" y="120" text-anchor="middle" fill="#f8fafc" font-family="ui-sans-serif,system-ui,sans-serif" font-size="32" font-weight="800">AI Chat</text>
  <text x="400" y="162" text-anchor="middle" fill="rgb(148 163 184)" font-family="ui-sans-serif,system-ui,sans-serif" font-size="16">Stream · tools</text>
  <rect x="120" y="200" width="560" height="200" rx="16" fill="rgb(30 41 59 / 0.9)" stroke="rgb(51 65 85)" stroke-width="1"/>
  <rect x="140" y="220" width="200" height="12" rx="4" fill="url(#acc-ai-chat-interface)" opacity="0.85"/>
  <rect x="140" y="248" width="520" height="8" rx="3" fill="rgb(51 65 85)"/>
  <rect x="140" y="268" width="480" height="8" rx="3" fill="rgb(51 65 85 / 0.7)"/>
  <rect x="140" y="288" width="420" height="8" rx="3" fill="rgb(51 65 85 / 0.5)"/>
  <rect x="140" y="330" width="240" height="54" rx="10" fill="rgb(56 189 248 / 0.2)" stroke="rgb(56 189 248 / 0.45)"/>
  <rect x="400" y="330" width="240" height="54" rx="10" fill="rgb(51 65 85 / 0.5)" stroke="rgb(71 85 105)"/>
</svg>