<?xml version="1.0" encoding="UTF-8"?>
<svg xmlns="http://www.w3.org/2000/svg" width="800" height="480" viewBox="0 0 800 480" role="img" aria-label="Settings preview">
  <defs>
    <linearGradient id="bg-settings" x1="0%" y1="0%" x2="100%" y2="100%">
      <stop offset="0%" style="stop-color:#f8fafc"/>
      <stop offset="100%" style="stop-color:#e2e8f0"/>
    </linearGradient>
    <linearGradient id="acc-settings" x1="0%" y1="0%" x2="100%" y2="0%">
      <stop offset="0%" style="stop-color:#0ea5e9"/>
      <stop offset="100%" style="stop-color:#22c55e"/>
    </linearGradient>
  </defs>
  <rect width="800" height="480" fill="url(#bg-settings)"/>
  <rect x="0" y="0" width="800" height="44" fill="rgb(248 250 252 / 0.95)" stroke="rgb(226 232 240)" stroke-width="1"/>
  <circle cx="22" cy="22" r="5" fill="#f87171"/><circle cx="42" cy="22" r="5" fill="#fbbf24"/><circle cx="62" cy="22" r="5" fill="#4ade80"/>
  <text x="80" y="28" fill="rgb(100 116 139)" font-family="ui-sans-serif,system-ui,sans-serif" font-size="13" font-weight="600">component</text>
  <rect x="48" y="80" width="200" height="360" rx="12" fill="#ffffff" stroke="rgb(226 232 240)" stroke-width="1"/>
  <rect x="68" y="108" width="140" height="10" rx="3" fill="url(#acc-settings)" opacity="0.5"/>
  <rect x="68" y="138" width="160" height="8" rx="2" fill="rgb(203 213 225)"/>
  <rect x="68" y="168" width="150" height="8" rx="2" fill="rgb(226 232 240)"/>
  <rect x="68" y="198" width="155" height="8" rx="2" fill="rgb(226 232 240)"/>
  <rect x="280" y="80" width="472" height="360" rx="12" fill="#ffffff" stroke="rgb(226 232 240)" stroke-width="1"/>
  <text x="308" y="118" fill="#0f172a" font-family="ui-sans-serif,system-ui,sans-serif" font-size="20" font-weight="700">Preferences</text>
  <rect x="308" y="148" width="400" height="40" rx="8" fill="rgb(248 250 252)" stroke="rgb(226 232 240)"/>
  <rect x="308" y="204" width="400" height="40" rx="8" fill="rgb(248 250 252)" stroke="rgb(226 232 240)"/>
  <rect x="308" y="280" width="72" height="36" rx="18" fill="url(#acc-settings)" opacity="0.85"/>
</svg>
